<svg id="Layer_1" data-name="Layer 1" xmlns="http://www.w3.org/2000/svg" viewBox="0 0 1080 1080"><defs><style>.cls-1,.cls-3{fill:#2a327e;}.cls-11,.cls-2{fill:#48ad50;}.cls-3{font-size:27.03px;font-family:MyriadPro-Regular, Myriad Pro;}.cls-4{letter-spacing:0em;}.cls-5{letter-spacing:0em;}.cls-6{letter-spacing:-0.01em;}.cls-7{letter-spacing:0em;}.cls-8{letter-spacing:-0.01em;}.cls-9{letter-spacing:0em;}.cls-10{fill:#000;}.cls-11{font-family:Poppins-Bold, Poppins;font-weight:700;}</style></defs><path class="cls-1" d="M405.72,583.33h-30L345,537.53a44.47,44.47,0,0,1-2.79-5.81h-.37v51.61H318.09V477.91h23.74v49.84h.37q.89-2.06,2.94-5.88l29.12-44h28.3L365.8,528.19Z"/><path class="cls-1" d="M423.21,503.9a13.56,13.56,0,0,1-9.63-3.49,11.27,11.27,0,0,1-3.75-8.57,10.86,10.86,0,0,1,3.75-8.53,15.76,15.76,0,0,1,19.3,0,10.92,10.92,0,0,1,3.71,8.53,11.24,11.24,0,0,1-3.71,8.68A13.83,13.83,0,0,1,423.21,503.9Zm11.25,53.92q0,4.78,2.28,7.24a7.88,7.88,0,0,0,6.1,2.47,20.52,20.52,0,0,0,3.82-.37l3.83-.74v16.33a86.11,86.11,0,0,1-8.86,1.8,66.67,66.67,0,0,1-9.74.69,22.08,22.08,0,0,1-8.42-1.54,17.8,17.8,0,0,1-6.47-4.45,20.1,20.1,0,0,1-4.16-7,27.39,27.39,0,0,1-1.47-9.26V508.05h23.09Z"/><path class="cls-1" d="M529.1,583.33H505.94V541.5q0-17.49-12.5-17.5a12.43,12.43,0,0,0-9.93,4.63,17.69,17.69,0,0,0-3.89,11.77v42.93H456.39V508.05h23.23V520h.29q8.31-13.74,24.19-13.75,25,0,25,31Z"/><path class="cls-1" d="M588.83,489.67a23.39,23.39,0,0,0-8.6-1.76q-11.19,0-11.18,12.13v8h17.2v17.13h-17.2v58.15H545.89V525.18H533.25V508.05h12.64v-9.34q0-12.85,8.38-20.73c5.59-5.24,15.52-7.87,25.12-7.87a40.08,40.08,0,0,1,11.77,1.47Z"/><path class="cls-1" d="M608.68,503.9a13.56,13.56,0,0,1-9.63-3.49,11.27,11.27,0,0,1-3.75-8.57,10.86,10.86,0,0,1,3.75-8.53,15.76,15.76,0,0,1,19.3,0,10.92,10.92,0,0,1,3.71,8.53,11.24,11.24,0,0,1-3.71,8.68A13.83,13.83,0,0,1,608.68,503.9Zm11.25,53.92q0,4.78,2.28,7.24a7.87,7.87,0,0,0,6.1,2.47,20.6,20.6,0,0,0,3.82-.37l3.82-.74v16.33a85,85,0,0,1-8.86,1.8,66.57,66.57,0,0,1-9.74.69,22.06,22.06,0,0,1-8.41-1.54,17.71,17.71,0,0,1-6.47-4.45,20.1,20.1,0,0,1-4.16-7,27.39,27.39,0,0,1-1.47-9.26V508.05h23.09Z"/><path class="cls-2" d="M646.55,554.09a39.28,39.28,0,0,0,18.22-20.2,19.17,19.17,0,0,1,2.16-3.86,14.2,14.2,0,0,1,12.13-6,13.67,13.67,0,0,1,11,5,17.92,17.92,0,0,1,1.62,2.29l25.55-12.89h0a10.39,10.39,0,0,0-10.39-10.39H694v8.75h-.29q-6.84-10.59-20.58-10.59-15.37,0-24.78,11.25t-9.41,30.36a57.18,57.18,0,0,0,.81,9.71Z"/><path class="cls-1" d="M694.28,545.6v1.56q0,9.12-4.45,14.67a14.21,14.21,0,0,1-11.65,5.55,13.66,13.66,0,0,1-11.47-5.48c-.17-.22-.32-.47-.49-.7L645.6,572.66c.56.81,1.14,1.61,1.77,2.37q8.46,10.14,22.87,10.14,15.51,0,23.45-12.64H694v6q0,10.66-6.46,16.87t-18.24,6.22a46.16,46.16,0,0,1-23.45-6.77l2.33,19.56q8.9,4.33,24.11,4.34c15.34,0,24.73-3.84,32.82-11.51s12.13-18.49,12.13-32.46V532.85Z"/><path class="cls-2" d="M710,501.06s-22.63-4.94-11.6-39.76c0,0,24.66,16.54,20,34.53,0,0,7.25-15.09,20.89-16.54a97.24,97.24,0,0,0,22.63-4.93s-8.7,39.17-37.72,31.63c0,0,17-3.61,23.51-16.25,0,0-36.85,29.31-45-11C702.72,478.71,700.11,482.78,710,501.06Z"/><text class="cls-3" transform="translate(318.09 613.68) scale(1.08 1)"><tspan class="cls-4">A</tspan><tspan x="16.46" y="0">n initi</tspan><tspan class="cls-5" x="80.12" y="0">a</tspan><tspan x="93.05" y="0">ti</tspan><tspan class="cls-6" x="108.32" y="0">v</tspan><tspan class="cls-7" x="121.05" y="0">e f</tspan><tspan class="cls-8" x="148.22" y="0">r</tspan><tspan class="cls-9" x="156.79" y="0">om</tspan><tspan class="cls-10" x="194.17" y="0"> </tspan><tspan class="cls-11" x="199.9" y="0">Talrop</tspan></text></svg>